<?xml version="1.0" encoding="utf-8"?>
<!-- Svg Vector Icons : http://www.onlinewebfonts.com/icon -->
<!DOCTYPE svg PUBLIC "-//W3C//DTD SVG 1.1//EN" "http://www.w3.org/Graphics/SVG/1.1/DTD/svg11.dtd">
<svg version="1.1" xmlns="http://www.w3.org/2000/svg" xmlns:xlink="http://www.w3.org/1999/xlink" x="0px" y="0px" viewBox="0 0 1000 1000" enable-background="new 0 0 1000 1000" xml:space="preserve">
<metadata> Svg Vector Icons : http://www.onlinewebfonts.com/icon </metadata>
<g><g transform="translate(0.000000,511.000000) scale(0.100000,-0.100000)"><path d="M249.7,3837.8c-162.3-111.8-153.5,68-146.9-2583.1l6.6-2374.7l50.4-72.4c114-157.9-65.8-146.9,2477.8-153.5l2287-4.4l-13.2,92.1c-8.8,52.6-37.3,212.7-61.4,357.4l-48.2,263.1l-2002,6.6l-1999.8,4.4V1281v1907.7l4425,4.4l4422.8,6.6l85.5,52.6c92.1,57,164.5,188.6,166.6,296c0,87.7-74.6,234.6-149.1,287.3c-59.2,43.9-98.7,43.9-4740.7,50.4l-4681.5,4.4L249.7,3837.8z"/><path d="M8183.1,2438.8c-35.1-26.3-37.3-118.4-32.9-1210.4c6.6-1098.6,8.8-1184.1,46-1206c26.3-17.5,48.2-17.5,76.7,0c35.1,21.9,37.3,107.4,43.9,1206c4.4,1092,2.2,1184.1-32.9,1210.4c-19.7,13.2-43.9,26.3-50.4,26.3S8202.8,2451.9,8183.1,2438.8z"/><path d="M1668.4,1827l-61.4-48.2l8.8-418.8c11-467.1,37.3-574.5,166.6-666.6c166.7-120.6,458.3-111.8,598.6,19.7l68,63.6l74.6-63.6c175.4-153.5,462.7-146.9,624.9,17.5c116.2,116.2,131.6,197.3,125,675.4l-6.6,412.2l-63.6,30.7c-57,26.3-72.4,26.3-120.6,0l-57-32.9l-11-403.5c-6.6-269.7-19.7-421-39.5-453.9c-35.1-63.6-94.3-94.3-177.6-94.3c-179.8,0-199.5,54.8-199.5,535c0,311.4-6.6,388.1-32.9,416.6c-54.8,52.6-114,61.4-184.2,26.3l-65.8-35.1l-6.6-418.8l-6.6-418.8l-61.4-52.6c-39.5-32.9-89.9-52.6-136-52.6s-96.5,19.7-136,52.6l-61.4,52.6l-6.6,416.6c-4.4,289.4-15.4,425.4-32.9,438.6C1806.6,1875.2,1729.8,1875.2,1668.4,1827z"/><path d="M3672.6,1857.7c-78.9-28.5-87.7-74.6-87.7-453.9c2.2-416.6,19.7-537.2,100.9-642.5c142.5-188.6,469.2-210.5,657.8-46l76.7,68l70.2-68c87.7-83.3,230.2-122.8,379.4-103.1c146.9,17.5,245.6,83.3,315.7,208.3c52.6,94.3,54.8,118.4,61.4,526.3c8.8,489,2.2,513.1-138.1,513.1c-133.7,0-142.5-28.5-142.5-462.7c0-478-21.9-532.8-199.5-532.8c-83.3,0-142.5,30.7-177.6,94.3c-19.7,32.9-32.9,184.2-39.5,453.9l-11,403.5l-57,32.9c-48.2,26.3-63.6,26.3-120.6,0l-63.6-30.7l-11-405.7c-8.8-263.1-21.9-423.2-39.5-453.9c-35.1-63.6-94.3-94.3-177.6-94.3c-177.6,0-199.5,54.8-199.5,532.8c0,269.7-8.8,390.3-26.3,416.6C3812.9,1853.3,3723,1877.4,3672.6,1857.7z"/><path d="M5606.6,1838c-50.4-35.1-50.4-37.3-43.8-489c6.6-434.2,8.8-456.1,61.4-548.2c76.7-131.6,186.4-186.4,383.7-186.4c160.1,0,225.8,21.9,320.1,109.6l57,52.6l41.7-46c146.9-162.3,495.6-166.7,653.5-8.8c107.4,107.4,125,206.1,118.4,679.8L7192,1816l-59.2,35.1c-54.8,28.5-68,28.5-120.6,0l-61.4-35.1l-11-423.2l-11-423.2l-61.4-52.6c-81.1-70.2-190.8-70.2-271.9,0l-61.4,52.6l-11,425.4l-11,423.2l-61.4,28.5c-65.8,30.7-127.2,19.7-179.8-30.7c-26.3-28.5-32.9-105.2-32.9-416.6c0-482.4-19.7-535-206.1-535c-94.3,0-160.1,52.6-188.6,149.1c-11,43.9-21.9,241.2-21.9,436.4c0,342.1-2.2,355.2-48.3,388.1C5711.9,1881.8,5668,1881.8,5606.6,1838z"/><path d="M7586.7,890.7c-160.1-32.9-160.1-241.2,0-280.7c72.4-17.5,173.2,35.1,182,98.7C7788.4,833.7,7705.1,914.8,7586.7,890.7z"/><path d="M5367.6-223.2c-17.5-43.9-6.6-111.8,267.5-1673.1c114-655.6,219.3-1206,232.4-1221.3c52.6-63.6,116.2-28.5,337.7,190.8l225.8,221.5l269.7-480.2c177.6-309.2,287.3-480.2,311.4-484.6c24.1-4.4,171,76.7,346.4,195.1c241.2,157.9,304.8,212.7,304.8,250c0,28.5-120.6,208.3-296,440.7c-162.3,214.9-291.6,394.7-285.1,399.1c4.4,6.6,125,32.9,265.3,61.4c278.5,57,322.3,79,311.4,153.5c-4.4,32.9-357.4,361.8-1078.8,1010.9C5486-177.2,5409.3-118,5367.6-223.2z"/><path d="M6922.3-646.4c2.2-11,177.6-173.2,388.1-361.8l381.5-344.2l978,6.6c975.8,6.6,978,6.6,1059.1,57c87.7,54.8,171,199.6,171,300.4c0,100.9-83.3,245.6-171,300.4l-81.1,50.4l-1366.1,6.6C7444.1-626.7,6915.7-633.3,6922.3-646.4z"/></g></g>
</svg>